# xmcd CD database file
#
# Track frame offsets:
#	150
#	18268
#	42765
#	71943
#	96119
#	122481
#	145876
#	172378
#	197047
#	215904
#	237618
#	258521
#	285096
#	310970
#	335297
#
# Disc length: 4735 seconds
#
# Revision: 3
# Processed by: cddbd v1.5.2PL0 Copyright (c) Steve Scherf et al.
# Submitted via: CDex 1.70beta2
#
DISCID=e6127d0f
DTITLE=Rasmus Faber - So Far 3 (Disc1)
DYEAR=2010
DGENRE=Jazz
TTITLE0=Hidden Thoughts
TTITLE1=Alive [Ramus Faber remix]
TTITLE2=Demanda
TTITLE3=Stay With Me
TTITLE4=Washes Over Me [Rasmus Faber Epic Vocal Mix]
TTITLE5=Turn Around
TTITLE6=Alibi [Rasmus Faber Remix]
TTITLE7=Oye
TTITLE8=Oblivion [Rasmus Faber Remix]
TTITLE9=Don’t Belong [Rasmus Faber Remix]
TTITLE10=Promises [Rasmus Faber Remix]
TTITLE11=I’m In Love [Rasmus Faber Epic Remix]
TTITLE12=Move For Me [Rasmus Faber Epic Remix]
TTITLE13=Born 1921
TTITLE14=Come Closer
EXTD=YEAR: 2010
EXTT0=
EXTT1=
EXTT2=
EXTT3=
EXTT4=
EXTT5=
EXTT6=
EXTT7=
EXTT8=
EXTT9=
EXTT10=
EXTT11=
EXTT12=
EXTT13=
EXTT14=
PLAYORDER=
